<svg width="24" height="24" viewBox="0 0 32 32" fill="none" xmlns="http://www.w3.org/2000/svg">
<path d="M17.6968 16.2L31.2472 2.64961C31.7152 2.18161 31.7152 1.42081 31.2472 0.952807C30.7792 0.484807 30.0184 0.484807 29.5504 0.952807L16 14.5032L2.44959 0.952807C1.98159 0.484807 1.22079 0.484807 0.752794 0.952807C0.284794 1.42081 0.284794 2.18161 0.752794 2.64961L14.3032 16.2L0.752794 29.7504C0.284794 30.2184 0.284794 30.9792 0.752794 31.4472C0.987994 31.6824 1.29519 31.7976 1.60239 31.7976C1.90959 31.7976 2.21679 31.68 2.45199 31.4472L16.0024 17.8968L29.5528 31.4472C29.788 31.6824 30.0952 31.7976 30.4024 31.7976C30.7096 31.7976 31.0168 31.68 31.252 31.4472C31.72 30.9792 31.72 30.2184 31.252 29.7504L17.7016 16.2H17.6968Z" fill="#747474"/>
</svg>
