<svg width="22" height="22" viewBox="0 0 22 22" fill="none" xmlns="http://www.w3.org/2000/svg">
<path fill-rule="evenodd" clip-rule="evenodd" d="M11 0C8.01167 0 7.63858 0.01375 6.46525 0.066C5.29375 0.121 4.49625 0.30525 3.795 0.5775C3.07175 0.858 2.45758 1.23475 1.84617 1.84617C1.23475 2.45758 0.857083 3.07083 0.5775 3.795C0.30525 4.49625 0.120083 5.29375 0.066 6.46525C0.011 7.63858 0 8.01167 0 11C0 13.9883 0.01375 14.3614 0.066 15.5348C0.121 16.7053 0.30525 17.5038 0.5775 18.205C0.858 18.9273 1.23475 19.5424 1.84617 20.1538C2.45758 20.7643 3.07083 21.1429 3.795 21.4225C4.49717 21.6938 5.29467 21.8799 6.46525 21.934C7.63858 21.989 8.01167 22 11 22C13.9883 22 14.3614 21.9862 15.5348 21.934C16.7053 21.879 17.5038 21.6938 18.205 21.4225C18.9273 21.142 19.5424 20.7643 20.1538 20.1538C20.7643 19.5424 21.1429 18.9301 21.4225 18.205C21.6938 17.5038 21.8799 16.7053 21.934 15.5348C21.989 14.3614 22 13.9883 22 11C22 8.01167 21.9862 7.63858 21.934 6.46525C21.879 5.29467 21.6938 4.49533 21.4225 3.795C21.142 3.07175 20.7643 2.45758 20.1538 1.84617C19.5424 1.23475 18.9301 0.857083 18.205 0.5775C17.5038 0.30525 16.7053 0.120083 15.5348 0.066C14.3614 0.011 13.9883 0 11 0ZM11 1.98C13.9361 1.98 14.2863 1.99467 15.4458 2.04508C16.5183 2.0955 17.1004 2.27333 17.4872 2.4255C18.0024 2.62442 18.3673 2.86275 18.7541 3.24683C19.1382 3.63183 19.3765 3.99758 19.5754 4.51275C19.7257 4.89958 19.9054 5.48167 19.954 6.55417C20.0063 7.71467 20.0182 8.063 20.0182 11C20.0182 13.937 20.0044 14.2863 19.9503 15.4458C19.8944 16.5183 19.7157 17.1004 19.5644 17.4873C19.3591 18.0024 19.1253 18.3673 18.7403 18.7541C18.3563 19.1382 17.985 19.3765 17.4753 19.5754C17.0903 19.7258 16.4991 19.9054 15.4266 19.954C14.2587 20.0063 13.915 20.0182 10.9725 20.0182C8.02908 20.0182 7.68533 20.0044 6.51842 19.9503C5.445 19.8944 4.85375 19.7157 4.46875 19.5644C3.94717 19.3591 3.58875 19.1253 3.20467 18.7403C2.81875 18.3563 2.57217 17.985 2.37967 17.4753C2.22842 17.0903 2.05058 16.4991 1.99467 15.4266L1.99246 15.3649C1.95289 14.2579 1.93875 13.8622 1.93875 10.9863C1.93875 8.11312 1.95286 7.71384 1.99231 6.59712L1.99467 6.53033C2.05058 5.45783 2.22842 4.8675 2.37967 4.4825C2.57217 3.96 2.81875 3.6025 3.20467 3.21658C3.58875 2.8325 3.94717 2.585 4.46875 2.39342C4.85375 2.24125 5.43217 2.0625 6.50467 2.0075L6.55762 2.00563C7.68452 1.96583 8.06207 1.9525 10.9587 1.9525L11 1.98ZM5.3515 11C5.3515 7.8815 7.87875 5.3515 11 5.3515C14.1185 5.3515 16.6485 7.87875 16.6485 11C16.6485 14.1185 14.1213 16.6485 11 16.6485C7.8815 16.6485 5.3515 14.1213 5.3515 11ZM11 14.6667C8.97417 14.6667 7.33333 13.0258 7.33333 11C7.33333 8.97417 8.97417 7.33333 11 7.33333C13.0258 7.33333 14.6667 8.97417 14.6667 11C14.6667 13.0258 13.0258 14.6667 11 14.6667ZM16.8722 6.44875C17.6 6.44875 18.1922 5.8575 18.1922 5.12875C18.1922 4.40092 17.5991 3.80875 16.8722 3.80967C16.1443 3.80967 15.5522 4.40092 15.5522 5.12875C15.5522 5.85658 16.1434 6.44875 16.8722 6.44875Z" fill="white"/>
</svg>
