<svg width="24" height="20" viewBox="0 0 24 20" fill="none" xmlns="http://www.w3.org/2000/svg">
<path d="M22.9958 2.86631C22.1462 3.23975 21.239 3.49415 20.2838 3.61031C21.2573 3.02375 22.0061 2.09927 22.3603 0.99623C21.4474 1.52903 20.4355 1.91687 19.3584 2.13287C18.4982 1.21223 17.2723 0.63623 15.911 0.63623C13.3027 0.63623 11.1878 2.75111 11.1878 5.35655C11.1878 5.73095 11.231 6.09095 11.3098 6.43559C7.38336 6.25031 3.90336 4.36487 1.5744 1.51463C1.16448 2.20775 0.93504 3.01319 0.93504 3.89063C0.93504 5.53223 1.77024 6.97511 3.03552 7.82279C2.2608 7.79783 1.53216 7.58471 0.89664 7.23143V7.28999C0.89664 9.57959 2.52192 11.489 4.6848 11.9239C4.28832 12.0305 3.86976 12.0881 3.44064 12.0881C3.1392 12.0881 2.85024 12.0593 2.56128 12.0055C3.16704 13.8804 4.90848 15.2474 6.98112 15.2858C5.36832 16.5521 3.32448 17.3066 1.1232 17.3066C0.7488 17.3066 0.37536 17.2846 0 17.2423C2.10144 18.5806 4.57728 19.363 7.25472 19.363C15.9466 19.363 20.6938 12.1668 20.6938 5.93639C20.6938 5.73575 20.6938 5.53319 20.6794 5.33159C21.6019 4.67015 22.4074 3.83399 23.041 2.88551L22.9958 2.86631Z" fill="white"/>
</svg>
