<svg xmlns="http://www.w3.org/2000/svg" viewBox="0 0 512 512" xml:space="preserve"><path fill="#6E83B7" d="M50 247.389H10C10 183.98 34.693 124.367 79.529 79.53 124.366 34.693 183.98 10 247.389 10v40C138.548 50 50 138.548 50 247.389z"/><path fill="#6E83B7" d="M119.257 247.389h-40c0-92.708 75.424-168.132 168.132-168.132v40c-70.653 0-128.132 57.479-128.132 128.132z"/><path fill="#6E83B7" d="M188.513 247.389h-40c0-54.52 44.355-98.875 98.875-98.875v40c-32.463-.001-58.875 26.411-58.875 58.875zM318.901 318.901c60.399-60.399 62.009-105.496 62.009-105.496l-41.071-41.071L444.53 67.642l37.452 37.452a68.312 68.312 0 0 1 19.868 52.84c-2.891 43.448-23.755 124.181-121.745 222.171S201.381 498.958 157.934 501.849a68.312 68.312 0 0 1-52.84-19.868L67.642 444.53l104.691-104.691 41.071 41.071s45.098-1.611 105.497-62.009z"/><path fill="#EDEFF1" d="m33.816 430.032 124.017-124.018 24.16 24.16L57.975 454.19zM454.197 57.977 330.179 181.995l-24.16-24.16L430.037 33.817z"/></svg>